<svg xmlns="http://www.w3.org/2000/svg" width="24" height="24" viewBox="0 0 24 24">
    <g fill="none" fill-rule="evenodd">
        <path d="M0 0h24v24H0z"/>
        <path fill="#333" d="M18.677 5.323c.215.215.323.463.323.744 0 .282-.108.53-.323.745L13.49 12l5.188 5.188c.215.215.323.463.323.745 0 .28-.108.53-.323.744a1.023 1.023 0 0 1-.744.323c-.282 0-.53-.108-.745-.323L12 13.49l-5.188 5.188a1.023 1.023 0 0 1-.745.323c-.28 0-.53-.108-.744-.323A1.023 1.023 0 0 1 5 17.933c0-.282.108-.53.323-.745L10.51 12 5.323 6.812A1.023 1.023 0 0 1 5 6.067c0-.28.108-.53.323-.744.215-.215.463-.323.744-.323.282 0 .53.108.745.323L12 10.51l5.188-5.188c.215-.215.463-.323.745-.323.28 0 .53.108.744.323z"/>
    </g>
</svg>
