<?xml version="1.0" encoding="UTF-8"?>
<svg width="214px" height="49px" viewBox="0 0 214 49" version="1.1" xmlns="http://www.w3.org/2000/svg" xmlns:xlink="http://www.w3.org/1999/xlink">
    <!-- Generator: Sketch 49.3 (51167) - http://www.bohemiancoding.com/sketch -->
    <title>logo_blog</title>
    <desc>Created with Sketch.</desc>
    <defs>
        <polygon id="path-1" points="0.3821 0.8774 10.801 0.8774 10.801 15.9834 0.3821 15.9834"></polygon>
    </defs>
    <g id="logo_blog" stroke="none" stroke-width="1" fill="none" fill-rule="evenodd">
        <g>
            <polygon id="Fill-1" fill="#565655" points="48.979 48.924 49.584 48.924 49.584 0 48.979 0"></polygon>
            <g id="Group-55">
                <path d="M23.9614,11.5507 L18.4104,11.5507 C16.7594,11.5507 15.4234,10.2127 15.4234,8.5647 L15.4234,3.0137 C15.4234,1.3647 16.7594,0.0287 18.4104,0.0287 L23.9614,0.0287 C25.6104,0.0287 26.9464,1.3647 26.9464,3.0137 L26.9464,8.5647 C26.9464,10.2127 25.6104,11.5507 23.9614,11.5507" id="Fill-2" fill="#0E6EB7"></path>
                <path d="M9.603,23.9911 L3.36,23.9911 C1.505,23.9911 0,22.4911 0,20.6331 L0,14.3871 C0,12.5341 1.505,11.0281 3.36,11.0281 L9.603,11.0281 C11.459,11.0281 12.963,12.5341 12.963,14.3871 L12.963,20.6331 C12.963,22.4911 11.459,23.9911 9.603,23.9911" id="Fill-4" fill="#72217B"></path>
                <path d="M9.0093,36.9511 L5.1963,36.9511 C4.0623,36.9511 3.1403,36.0341 3.1403,34.8971 L3.1403,31.0861 C3.1403,29.9491 4.0623,29.0291 5.1963,29.0291 L9.0093,29.0291 C10.1433,29.0291 11.0633,29.9491 11.0633,31.0861 L11.0633,34.8971 C11.0633,36.0341 10.1433,36.9511 9.0093,36.9511" id="Fill-6" fill="#B12384"></path>
                <path d="M19.2485,48.9999 L14.7385,48.9999 C13.3985,48.9999 12.3115,47.9179 12.3115,46.5739 L12.3115,42.0649 C12.3115,40.7229 13.3985,39.6389 14.7385,39.6389 L19.2485,39.6389 C20.5885,39.6389 21.6745,40.7229 21.6745,42.0649 L21.6745,46.5739 C21.6745,47.9179 20.5885,48.9999 19.2485,48.9999" id="Fill-8" fill="#D82B80"></path>
                <path d="M35.7729,13.8212 L32.6479,13.8212 C31.7199,13.8212 30.9689,13.0672 30.9689,12.1422 L30.9689,9.0212 C30.9689,8.0932 31.7199,7.3402 32.6479,7.3402 L35.7729,7.3402 C36.6999,7.3402 37.4499,8.0932 37.4499,9.0212 L37.4499,12.1422 C37.4499,13.0672 36.6999,13.8212 35.7729,13.8212" id="Fill-10" fill="#D82B80"></path>
                <path d="M25.3413,26.537 C24.2393,25.933 23.1083,25.378 22.0133,24.764 C21.5693,24.515 21.1373,24.212 20.7823,23.85 C19.9423,22.996 20.0793,21.742 21.0613,21.189 C21.3613,21.022 21.7203,20.923 22.0623,20.876 C23.0803,20.738 24.0103,21.009 24.9023,21.517 C25.3463,21.771 25.8503,21.96 26.3513,22.066 C26.8753,22.177 27.3363,21.935 27.6603,21.499 C27.9773,21.068 27.9773,20.585 27.7123,20.153 C27.5003,19.808 27.2193,19.476 26.8953,19.233 C25.6523,18.299 24.2173,17.908 22.6773,17.864 C21.5483,17.883 20.4723,18.116 19.4773,18.67 C17.3303,19.866 16.4923,22.185 17.4153,24.445 C17.8653,25.543 18.6873,26.325 19.7003,26.893 C20.5933,27.395 21.5243,27.829 22.4393,28.292 C23.2033,28.681 23.9503,29.099 24.5503,29.729 C25.2933,30.505 25.4493,31.391 24.9613,32.118 C24.5953,32.662 24.0393,32.896 23.4163,33 C22.1873,33.197 21.0703,32.886 20.0243,32.242 C19.6613,32.018 19.2913,31.788 18.8973,31.639 C17.7643,31.209 16.7133,32.037 16.9273,33.172 C17.0243,33.677 17.3423,34.051 17.7193,34.376 C19.6843,36.074 23.2493,36.499 25.6113,35.317 C28.1513,34.046 29.0363,31.33 27.7293,28.802 C27.1983,27.773 26.3293,27.083 25.3413,26.537" id="Fill-12" fill="#004590"></path>
                <path d="M30.855,35.9208 C30.747,35.9208 30.659,35.8358 30.659,35.7308 L30.659,33.7278 L30.211,33.7278 C30.106,33.7278 30.021,33.6398 30.021,33.5308 C30.021,33.4188 30.103,33.3348 30.211,33.3348 L31.505,33.3348 C31.614,33.3348 31.696,33.4188 31.696,33.5308 C31.696,33.6398 31.611,33.7278 31.505,33.7278 L31.051,33.7278 L31.051,35.7308 C31.051,35.8388 30.967,35.9208 30.855,35.9208" id="Fill-14" fill="#004590"></path>
                <path d="M33.1723,35.9247 C33.0643,35.9247 33.0003,35.8457 32.9783,35.7717 L32.4203,34.1327 L32.4203,35.7307 C32.4203,35.8387 32.3353,35.9207 32.2243,35.9207 C32.1153,35.9207 32.0273,35.8357 32.0273,35.7307 L32.0273,33.6167 C32.0273,33.4597 32.1653,33.3207 32.3233,33.3207 C32.4483,33.3207 32.5653,33.4107 32.6073,33.5387 L33.1723,35.1927 L33.7313,33.5377 C33.7733,33.4107 33.8913,33.3207 34.0183,33.3207 C34.1753,33.3207 34.3133,33.4597 34.3133,33.6167 L34.3133,35.7307 C34.3133,35.8387 34.2293,35.9207 34.1163,35.9207 C34.0083,35.9207 33.9203,35.8357 33.9203,35.7307 L33.9203,34.1367 C33.8273,34.4087 33.6843,34.8367 33.5753,35.1567 C33.3783,35.7407 33.3703,35.7657 33.3663,35.7717 C33.3223,35.8717 33.2563,35.9247 33.1723,35.9247" id="Fill-16" fill="#004590"></path>
                <path d="M60.3559,19.0107 C60.2679,18.9217 60.2459,18.7887 60.3349,18.6777 L61.3109,17.5227 C61.3999,17.4107 61.5109,17.4107 61.6229,17.4997 C62.5999,18.2777 64.1109,19.0557 65.8429,19.0557 C67.9309,19.0557 69.1749,18.0117 69.1749,16.4787 C69.1749,15.1907 68.4419,14.3237 66.0209,14.0127 L65.2649,13.9027 C62.3339,13.5017 60.8229,12.1027 60.8229,9.7257 C60.8229,7.0377 62.7549,5.3057 65.7539,5.3057 C67.5319,5.3057 69.2419,5.8827 70.3519,6.7047 C70.4629,6.7937 70.4859,6.9047 70.3969,7.0157 L69.6409,8.2377 C69.5519,8.3487 69.4409,8.3487 69.3309,8.2817 C68.1089,7.5267 66.9759,7.1497 65.6879,7.1497 C63.8429,7.1497 62.8219,8.1487 62.8219,9.5927 C62.8219,10.8587 63.6669,11.7027 65.9989,12.0137 L66.7319,12.1247 C69.6859,12.5247 71.1739,13.8797 71.1739,16.3457 C71.1739,18.9887 69.3079,20.8997 65.6659,20.8997 C63.5329,20.8997 61.4669,20.0327 60.3559,19.0107" id="Fill-18" fill="#72217B"></path>
                <path d="M74.2153,5.7714 C74.2153,5.6384 74.3043,5.5494 74.4383,5.5494 L83.5233,5.5494 C83.6563,5.5494 83.7443,5.6384 83.7443,5.7714 L83.7443,7.1704 C83.7443,7.3044 83.6563,7.3934 83.5233,7.3934 L76.3253,7.3934 C76.2373,7.3934 76.1933,7.4374 76.1933,7.5264 L76.1933,11.9694 C76.1933,12.0584 76.2373,12.1024 76.3253,12.1024 L82.4353,12.1024 C82.5683,12.1024 82.6563,12.1914 82.6563,12.3254 L82.6563,13.7244 C82.6563,13.8574 82.5683,13.9464 82.4353,13.9464 L76.3253,13.9464 C76.2373,13.9464 76.1933,13.9914 76.1933,14.0794 L76.1933,18.6774 C76.1933,18.7664 76.2373,18.8114 76.3253,18.8114 L83.5233,18.8114 C83.6563,18.8114 83.7443,18.8994 83.7443,19.0334 L83.7443,20.4324 C83.7443,20.5654 83.6563,20.6544 83.5233,20.6544 L74.4383,20.6544 C74.3043,20.6544 74.2153,20.5654 74.2153,20.4324 L74.2153,5.7714 Z" id="Fill-20" fill="#72217B"></path>
                <path d="M95.1606,9.9033 C95.1606,8.3263 94.1166,7.3933 92.3626,7.3933 L88.8306,7.3933 C88.7416,7.3933 88.6966,7.4373 88.6966,7.5263 L88.6966,12.2803 C88.6966,12.3693 88.7416,12.4143 88.8306,12.4143 L92.3626,12.4143 C94.1166,12.4143 95.1606,11.4803 95.1606,9.9033 Z M95.4726,20.6543 C95.3166,20.6543 95.2506,20.5883 95.1826,20.4323 L92.1626,14.2573 L88.8306,14.2573 C88.7416,14.2573 88.6966,14.3013 88.6966,14.3903 L88.6966,20.4323 C88.6966,20.5653 88.6076,20.6543 88.4746,20.6543 L86.9416,20.6543 C86.8086,20.6543 86.7206,20.5653 86.7206,20.4323 L86.7206,5.7713 C86.7206,5.6383 86.8086,5.5493 86.9416,5.5493 L92.4076,5.5493 C95.2276,5.5493 97.1386,7.2823 97.1386,9.9033 C97.1386,11.9473 95.9826,13.4353 94.1616,14.0123 L97.3826,20.3873 C97.4716,20.5213 97.4046,20.6543 97.2496,20.6543 L95.4726,20.6543 Z" id="Fill-22" fill="#72217B"></path>
                <path d="M107.7104,15.3232 L105.3334,8.4602 L105.2894,8.4602 L102.8904,15.3232 L107.7104,15.3232 Z M104.3344,5.7712 C104.3784,5.6382 104.4444,5.5502 104.6014,5.5502 L106.0444,5.5502 C106.1994,5.5502 106.2884,5.6382 106.3334,5.7712 L111.5094,20.4322 C111.5534,20.5652 111.4864,20.6542 111.3534,20.6542 L109.7984,20.6542 C109.6434,20.6542 109.5544,20.5882 109.5094,20.4322 L108.3554,17.1452 L102.2454,17.1452 L101.0914,20.4322 C101.0244,20.5882 100.9354,20.6542 100.8024,20.6542 L99.2474,20.6542 C99.1134,20.6542 99.0474,20.5652 99.0914,20.4322 L104.3344,5.7712 Z" id="Fill-24" fill="#72217B"></path>
                <path d="M113.1733,19.0107 C113.0843,18.9217 113.0623,18.7887 113.1513,18.6777 L114.1283,17.5227 C114.2173,17.4107 114.3273,17.4107 114.4393,17.4997 C115.4163,18.2777 116.9273,19.0557 118.6593,19.0557 C120.7473,19.0557 121.9913,18.0117 121.9913,16.4787 C121.9913,15.1907 121.2583,14.3237 118.8373,14.0127 L118.0813,13.9027 C115.1503,13.5017 113.6393,12.1027 113.6393,9.7257 C113.6393,7.0377 115.5713,5.3057 118.5703,5.3057 C120.3483,5.3057 122.0583,5.8827 123.1683,6.7047 C123.2793,6.7937 123.3023,6.9047 123.2133,7.0157 L122.4583,8.2377 C122.3683,8.3487 122.2583,8.3487 122.1473,8.2817 C120.9253,7.5267 119.7923,7.1497 118.5043,7.1497 C116.6603,7.1497 115.6383,8.1487 115.6383,9.5927 C115.6383,10.8587 116.4833,11.7027 118.8153,12.0137 L119.5483,12.1247 C122.5023,12.5247 123.9903,13.8797 123.9903,16.3457 C123.9903,18.9887 122.1243,20.8997 118.4823,20.8997 C116.3493,20.8997 114.2833,20.0327 113.1733,19.0107" id="Fill-26" fill="#72217B"></path>
                <path d="M134.1636,15.3232 L131.7866,8.4602 L131.7426,8.4602 L129.3436,15.3232 L134.1636,15.3232 Z M130.7866,5.7712 C130.8316,5.6382 130.8976,5.5502 131.0536,5.5502 L132.4976,5.5502 C132.6526,5.5502 132.7416,5.6382 132.7866,5.7712 L137.9616,20.4322 C138.0066,20.5652 137.9386,20.6542 137.8066,20.6542 L136.2516,20.6542 C136.0966,20.6542 136.0076,20.5882 135.9626,20.4322 L134.8076,17.1452 L128.6986,17.1452 L127.5436,20.4322 C127.4766,20.5882 127.3886,20.6542 127.2556,20.6542 L125.6996,20.6542 C125.5666,20.6542 125.5006,20.5652 125.5446,20.4322 L130.7866,5.7712 Z" id="Fill-28" fill="#72217B"></path>
                <path d="M61.3218,28.0995 C61.3218,27.9665 61.4088,27.8775 61.5378,27.8775 L70.3828,27.8775 C70.5118,27.8775 70.5988,27.9665 70.5988,28.0995 L70.5988,29.4995 C70.5988,29.6325 70.5118,29.7215 70.3828,29.7215 L63.3768,29.7215 C63.2898,29.7215 63.2468,29.7655 63.2468,29.8545 L63.2468,34.2975 C63.2468,34.3865 63.2898,34.4305 63.3768,34.4305 L69.3228,34.4305 C69.4528,34.4305 69.5398,34.5195 69.5398,34.6525 L69.5398,36.0525 C69.5398,36.1855 69.4528,36.2745 69.3228,36.2745 L63.3768,36.2745 C63.2898,36.2745 63.2468,36.3185 63.2468,36.4085 L63.2468,41.0055 C63.2468,41.0945 63.2898,41.1385 63.3768,41.1385 L70.3828,41.1385 C70.5118,41.1385 70.5988,41.2275 70.5988,41.3615 L70.5988,42.7605 C70.5988,42.8935 70.5118,42.9835 70.3828,42.9835 L61.5378,42.9835 C61.4088,42.9835 61.3218,42.8935 61.3218,42.7605 L61.3218,28.0995 Z" id="Fill-30" fill="#72217B"></path>
                <path d="M73.1714,28.0995 C73.1714,27.9665 73.2574,27.8775 73.3874,27.8775 L74.7924,27.8775 C74.9664,27.8775 75.0734,27.9445 75.1394,28.0995 L79.5284,38.2745 L79.5934,38.2745 L83.8974,28.0995 C83.9614,27.9445 84.0694,27.8775 84.2424,27.8775 L85.6484,27.8775 C85.7774,27.8775 85.8644,27.9665 85.8644,28.0995 L85.8644,42.7605 C85.8644,42.8935 85.7774,42.9835 85.6484,42.9835 L84.2854,42.9835 C84.1564,42.9835 84.0694,42.8935 84.0694,42.7605 L84.0694,32.2535 L84.0054,32.2535 L80.3504,40.5615 C80.2644,40.7615 80.1554,40.8285 79.9614,40.8285 L79.0964,40.8285 C78.8804,40.8285 78.7714,40.7615 78.6854,40.5615 L75.0304,32.2535 L74.9664,32.2535 L74.9664,42.7605 C74.9664,42.8935 74.8794,42.9835 74.7494,42.9835 L73.3874,42.9835 C73.2574,42.9835 73.1714,42.8935 73.1714,42.7605 L73.1714,28.0995 Z" id="Fill-32" fill="#72217B"></path>
                <path d="M97.3891,32.3876 C97.3891,30.7426 96.3291,29.7216 94.5131,29.7216 L91.2261,29.7216 C91.1391,29.7216 91.0971,29.7656 91.0971,29.8546 L91.0971,34.9196 C91.0971,35.0086 91.1391,35.0526 91.2261,35.0526 L94.5131,35.0526 C96.3291,35.0526 97.3891,34.0316 97.3891,32.3876 Z M89.3881,42.9836 C89.2581,42.9836 89.1711,42.8936 89.1711,42.7606 L89.1711,28.0996 C89.1711,27.9666 89.2581,27.8776 89.3881,27.8776 L94.6211,27.8776 C97.4541,27.8776 99.2921,29.6556 99.2921,32.3876 C99.2921,35.1196 97.4541,36.8966 94.6211,36.8966 L91.2261,36.8966 C91.1391,36.8966 91.0971,36.9406 91.0971,37.0296 L91.0971,42.7606 C91.0971,42.8936 91.0101,42.9836 90.8801,42.9836 L89.3881,42.9836 Z" id="Fill-34" fill="#72217B"></path>
                <path d="M109.8657,32.2314 C109.8657,30.6544 108.8487,29.7214 107.1407,29.7214 L103.7027,29.7214 C103.6157,29.7214 103.5727,29.7654 103.5727,29.8544 L103.5727,34.6084 C103.5727,34.6974 103.6157,34.7424 103.7027,34.7424 L107.1407,34.7424 C108.8487,34.7424 109.8657,33.8084 109.8657,32.2314 Z M110.1687,42.9834 C110.0167,42.9834 109.9517,42.9164 109.8867,42.7604 L106.9457,36.5854 L103.7027,36.5854 C103.6157,36.5854 103.5727,36.6294 103.5727,36.7184 L103.5727,42.7604 C103.5727,42.8934 103.4867,42.9834 103.3567,42.9834 L101.8647,42.9834 C101.7347,42.9834 101.6487,42.8934 101.6487,42.7604 L101.6487,28.0994 C101.6487,27.9664 101.7347,27.8774 101.8647,27.8774 L107.1837,27.8774 C109.9297,27.8774 111.7907,29.6104 111.7907,32.2314 C111.7907,34.2754 110.6657,35.7634 108.8917,36.3404 L112.0277,42.7154 C112.1147,42.8494 112.0497,42.9834 111.8977,42.9834 L110.1687,42.9834 Z" id="Fill-36" fill="#72217B"></path>
                <path d="M114.6655,28.0995 C114.6655,27.9665 114.7515,27.8775 114.8815,27.8775 L123.7265,27.8775 C123.8555,27.8775 123.9415,27.9665 123.9415,28.0995 L123.9415,29.4995 C123.9415,29.6325 123.8555,29.7215 123.7265,29.7215 L116.7195,29.7215 C116.6335,29.7215 116.5895,29.7655 116.5895,29.8545 L116.5895,34.2975 C116.5895,34.3865 116.6335,34.4305 116.7195,34.4305 L122.6665,34.4305 C122.7965,34.4305 122.8825,34.5195 122.8825,34.6525 L122.8825,36.0525 C122.8825,36.1855 122.7965,36.2745 122.6665,36.2745 L116.7195,36.2745 C116.6335,36.2745 116.5895,36.3185 116.5895,36.4085 L116.5895,41.0055 C116.5895,41.0945 116.6335,41.1385 116.7195,41.1385 L123.7265,41.1385 C123.8555,41.1385 123.9415,41.2275 123.9415,41.3615 L123.9415,42.7605 C123.9415,42.8935 123.8555,42.9835 123.7265,42.9835 L114.8815,42.9835 C114.7515,42.9835 114.6655,42.8935 114.6655,42.7605 L114.6655,28.0995 Z" id="Fill-38" fill="#72217B"></path>
                <path d="M126.5141,28.0995 C126.5141,27.9665 126.6011,27.8775 126.7311,27.8775 L135.5751,27.8775 C135.7041,27.8775 135.7911,27.9665 135.7911,28.0995 L135.7911,29.4995 C135.7911,29.6325 135.7041,29.7215 135.5751,29.7215 L128.5691,29.7215 C128.4821,29.7215 128.4391,29.7655 128.4391,29.8545 L128.4391,34.2975 C128.4391,34.3865 128.4821,34.4305 128.5691,34.4305 L134.5161,34.4305 C134.6461,34.4305 134.7321,34.5195 134.7321,34.6525 L134.7321,36.0525 C134.7321,36.1855 134.6461,36.2745 134.5161,36.2745 L128.5691,36.2745 C128.4821,36.2745 128.4391,36.3185 128.4391,36.4085 L128.4391,41.0055 C128.4391,41.0945 128.4821,41.1385 128.5691,41.1385 L135.5751,41.1385 C135.7041,41.1385 135.7911,41.2275 135.7911,41.3615 L135.7911,42.7605 C135.7911,42.8935 135.7041,42.9835 135.5751,42.9835 L126.7311,42.9835 C126.6011,42.9835 126.5141,42.8935 126.5141,42.7605 L126.5141,28.0995 Z" id="Fill-40" fill="#72217B"></path>
                <path d="M138.3638,28.0995 C138.3638,27.9665 138.4498,27.8775 138.5798,27.8775 L139.9638,27.8775 C140.1358,27.8775 140.2448,27.9225 140.3308,28.0995 L146.9918,39.4285 L147.0778,39.4285 L147.0778,28.0995 C147.0778,27.9665 147.1648,27.8775 147.2948,27.8775 L148.6568,27.8775 C148.7868,27.8775 148.8728,27.9665 148.8728,28.0995 L148.8728,42.7605 C148.8728,42.8935 148.7868,42.9835 148.6568,42.9835 L147.2728,42.9835 C147.1218,42.9835 146.9918,42.9385 146.9048,42.7605 L140.2228,31.4765 L140.1578,31.4765 L140.1578,42.7605 C140.1578,42.8935 140.0718,42.9835 139.9418,42.9835 L138.5798,42.9835 C138.4498,42.9835 138.3638,42.8935 138.3638,42.7605 L138.3638,28.0995 Z" id="Fill-42" fill="#72217B"></path>
                <path d="M154.2348,41.1386 L156.9378,41.1386 C158.7108,41.1386 159.8138,40.5386 160.2898,39.0736 C160.4838,38.5186 160.5918,37.7846 160.5918,35.4306 C160.5918,33.0756 160.4838,32.3426 160.2898,31.7876 C159.8138,30.3216 158.7108,29.7216 156.9378,29.7216 L154.2348,29.7216 C154.1478,29.7216 154.1048,29.7656 154.1048,29.8546 L154.1048,41.0056 C154.1048,41.0946 154.1478,41.1386 154.2348,41.1386 Z M152.1798,28.0996 C152.1798,27.9666 152.2658,27.8776 152.3958,27.8776 L157.3478,27.8776 C159.8358,27.8776 161.4788,28.9656 162.1488,31.0986 C162.4088,31.9206 162.5388,32.7426 162.5388,35.4306 C162.5388,38.1176 162.4088,38.9406 162.1488,39.7616 C161.4788,41.8946 159.8358,42.9836 157.3478,42.9836 L152.3958,42.9836 C152.2658,42.9836 152.1798,42.8936 152.1798,42.7606 L152.1798,28.0996 Z" id="Fill-44" fill="#72217B"></path>
                <path d="M165.3266,28.0995 C165.3266,27.9665 165.4126,27.8775 165.5426,27.8775 L174.3876,27.8775 C174.5166,27.8775 174.6036,27.9665 174.6036,28.0995 L174.6036,29.4995 C174.6036,29.6325 174.5166,29.7215 174.3876,29.7215 L167.3816,29.7215 C167.2946,29.7215 167.2516,29.7655 167.2516,29.8545 L167.2516,34.2975 C167.2516,34.3865 167.2946,34.4305 167.3816,34.4305 L173.3276,34.4305 C173.4576,34.4305 173.5446,34.5195 173.5446,34.6525 L173.5446,36.0525 C173.5446,36.1855 173.4576,36.2745 173.3276,36.2745 L167.3816,36.2745 C167.2946,36.2745 167.2516,36.3185 167.2516,36.4085 L167.2516,41.0055 C167.2516,41.0945 167.2946,41.1385 167.3816,41.1385 L174.3876,41.1385 C174.5166,41.1385 174.6036,41.2275 174.6036,41.3615 L174.6036,42.7605 C174.6036,42.8935 174.5166,42.9835 174.3876,42.9835 L165.5426,42.9835 C165.4126,42.9835 165.3266,42.8935 165.3266,42.7605 L165.3266,28.0995 Z" id="Fill-46" fill="#72217B"></path>
                <path d="M179.2309,41.1386 L181.9339,41.1386 C183.7069,41.1386 184.8099,40.5386 185.2859,39.0736 C185.4799,38.5186 185.5879,37.7846 185.5879,35.4306 C185.5879,33.0756 185.4799,32.3426 185.2859,31.7876 C184.8099,30.3216 183.7069,29.7216 181.9339,29.7216 L179.2309,29.7216 C179.1439,29.7216 179.1009,29.7656 179.1009,29.8546 L179.1009,41.0056 C179.1009,41.0946 179.1439,41.1386 179.2309,41.1386 Z M177.1759,28.0996 C177.1759,27.9666 177.2619,27.8776 177.3919,27.8776 L182.3439,27.8776 C184.8319,27.8776 186.4739,28.9656 187.1449,31.0986 C187.4049,31.9206 187.5349,32.7426 187.5349,35.4306 C187.5349,38.1176 187.4049,38.9406 187.1449,39.7616 C186.4739,41.8946 184.8319,42.9836 182.3439,42.9836 L177.3919,42.9836 C177.2619,42.9836 177.1759,42.8936 177.1759,42.7606 L177.1759,28.0996 Z" id="Fill-48" fill="#72217B"></path>
                <path d="M198.3237,39.1406 C198.4967,38.5846 198.6467,37.6076 198.6467,35.4306 C198.6467,33.2536 198.4967,32.2766 198.3237,31.7206 C197.8687,30.2776 196.8317,29.4776 195.1877,29.4776 C193.5657,29.4776 192.5277,30.2776 192.0737,31.7206 C191.9007,32.2766 191.7497,33.2536 191.7497,35.4306 C191.7497,37.6076 191.9007,38.5846 192.0737,39.1406 C192.5277,40.5836 193.5657,41.3836 195.1877,41.3836 C196.8317,41.3836 197.8687,40.5836 198.3237,39.1406 M190.1917,39.6956 C189.9117,38.8286 189.8027,37.9176 189.8027,35.4306 C189.8027,32.9426 189.9117,32.0326 190.1917,31.1656 C190.9487,28.8326 192.7217,27.6336 195.1877,27.6336 C197.6747,27.6336 199.4477,28.8326 200.2047,31.1656 C200.4857,32.0326 200.5947,32.9426 200.5947,35.4306 C200.5947,37.9176 200.4857,38.8286 200.2047,39.6956 C199.4477,42.0276 197.6747,43.2276 195.1877,43.2276 C192.7217,43.2276 190.9487,42.0276 190.1917,39.6956" id="Fill-50" fill="#72217B"></path>
                <g id="Group-54" transform="translate(203.000000, 27.000000)">
                    <mask id="mask-2" fill="white">
                        <use xlink:href="#path-1"></use>
                    </mask>
                    <g id="Clip-53"></g>
                    <path d="M8.6001,5.2314 C8.6001,3.6544 7.5831,2.7214 5.8751,2.7214 L2.4371,2.7214 C2.3501,2.7214 2.3071,2.7654 2.3071,2.8544 L2.3071,7.6084 C2.3071,7.6974 2.3501,7.7424 2.4371,7.7424 L5.8751,7.7424 C7.5831,7.7424 8.6001,6.8084 8.6001,5.2314 Z M8.9031,15.9834 C8.7511,15.9834 8.6861,15.9164 8.6211,15.7604 L5.6811,9.5854 L2.4371,9.5854 C2.3501,9.5854 2.3071,9.6294 2.3071,9.7184 L2.3071,15.7604 C2.3071,15.8934 2.2201,15.9834 2.0901,15.9834 L0.5981,15.9834 C0.4691,15.9834 0.3821,15.8934 0.3821,15.7604 L0.3821,1.0994 C0.3821,0.9664 0.4691,0.8774 0.5981,0.8774 L5.9181,0.8774 C8.6641,0.8774 10.5241,2.6104 10.5241,5.2314 C10.5241,7.2754 9.4001,8.7634 7.6261,9.3404 L10.7621,15.7154 C10.8491,15.8494 10.7841,15.9834 10.6321,15.9834 L8.9031,15.9834 Z" id="Fill-52" fill="#72217B" mask="url(#mask-2)"></path>
                </g>
            </g>
        </g>
    </g>
</svg>